<?xml version="1.0" encoding="UTF-8"?>
<svg id="Layer_1" data-name="Layer 1" xmlns="http://www.w3.org/2000/svg" xmlns:xlink="http://www.w3.org/1999/xlink" viewBox="0 0 403 356">
  <defs>
    <style>
      .cls-1 {
        fill: #4d7c0f;
      }

      .cls-2 {
        fill: #2f2e41;
      }

      .cls-3 {
        fill: #fff;
      }

      .cls-4 {
        fill: none;
      }

      .cls-5 {
        fill: #e5e5e5;
      }

      .cls-6 {
        fill: #3f3d56;
      }

      .cls-7 {
        fill: #cbcbcb;
      }

      .cls-8 {
        clip-path: url(#clippath);
      }

      .cls-9 {
        fill: #ffb7b7;
      }
    </style>
    <clipPath id="clippath">
      <rect class="cls-4" width="403" height="356"/>
    </clipPath>
  </defs>
  <g class="cls-8">
    <g>
      <path class="cls-6" d="M385.15,355.53l-.54-.2c-.12-.04-11.85-4.54-17.35-14.72-5.5-10.19-2.81-22.45-2.78-22.57l.13-.56.54.2c.12.04,11.85,4.54,17.35,14.72,5.5,10.19,2.81,22.45,2.78,22.57l-.13.56ZM368.14,340.13c4.65,8.61,13.92,13.03,16.27,14.03.45-2.52,1.85-12.69-2.8-21.29-4.64-8.6-13.92-13.02-16.27-14.03-.45,2.52-1.85,12.69,2.8,21.29Z"/>
      <path class="cls-1" d="M371.46,337.03c9.88,5.94,13.69,17.73,13.69,17.73,0,0-12.21,2.17-22.09-3.77-9.88-5.94-13.69-17.73-13.69-17.73,0,0,12.21-2.17,22.09,3.77Z"/>
      <path class="cls-9" d="M212.4,190.79c.48-.74,1.11-1.37,1.85-1.85.74-.48,1.57-.8,2.44-.93.87-.13,1.76-.09,2.61.15.85.23,1.64.64,2.32,1.2.21.18.42.37.6.58l24.61-3.58,1.37-18.48c.1-1.42.77-2.74,1.85-3.67,1.08-.93,2.48-1.39,3.9-1.29,1.42.1,2.74.77,3.67,1.84.93,1.08,1.39,2.48,1.29,3.9,0,.03,0,.07,0,.1l-2.4,25.94v.06c-.32,1-.95,1.87-1.8,2.48-.85.61-1.87.94-2.91.93l-28.94-.5c-.11.17-.23.34-.36.5-.56.68-1.26,1.24-2.05,1.63-.79.39-1.65.61-2.53.65-.88.04-1.76-.12-2.58-.44-.82-.33-1.56-.82-2.17-1.46-.12-.13-.24-.26-.36-.39-.83-1.03-1.32-2.29-1.39-3.61-.07-1.32.27-2.63.99-3.74Z"/>
      <path class="cls-9" d="M262,348.39h-7.02s-3.34-27.04-3.34-27.04h10.36v27.04Z"/>
      <path class="cls-2" d="M263.79,355.19h-22.63v-.29c0-2.33.93-4.57,2.58-6.22,1.65-1.65,3.89-2.58,6.23-2.58h13.82v9.09Z"/>
      <path class="cls-9" d="M311.04,342.03l-6.64,2.26-11.9-24.52,9.8-3.34,8.74,25.59Z"/>
      <path class="cls-2" d="M314.93,347.89l-21.42,7.3-.09-.27c-.75-2.21-.6-4.63.43-6.72,1.03-2.1,2.85-3.69,5.06-4.45h0l13.08-4.46,2.94,8.6Z"/>
      <path class="cls-2" d="M269.73,111.95s-6.99-2.3-11.48,6.91c-4.49,9.22-11.48,19.36-11.48,19.36l3.99.92s1-6.45,3.49-7.37l-1,8.3s29.94,9.68,43.41-.92l-.5-3.23s2,.46,2,3.23l1.5-1.38s-1.5-2.77-5.99-6.45c-2.95-2.42-3.96-7.02-4.31-9.9-.28-2.44-1.32-4.72-2.99-6.53-2.99-3.19-8.42-6.59-16.65-2.93Z"/>
      <path class="cls-9" d="M272.3,144.16c7.05,0,12.76-5.71,12.76-12.74s-5.71-12.75-12.76-12.75-12.76,5.71-12.76,12.75,5.71,12.74,12.76,12.74Z"/>
      <path class="cls-7" d="M255.29,154.65l-2.32-.77s-4.64,1.93-4.64,5.41-.77,17.38-.77,17.38l10.44,1.16-2.71-23.17Z"/>
      <path class="cls-9" d="M296.81,230.62c-.96-1.08-1.51-2.46-1.53-3.91-.02-1.44.47-2.85,1.39-3.96l-6.51-54.48c-.06-1.28.39-2.54,1.25-3.5.86-.96,2.07-1.53,3.36-1.59,1.29-.07,2.55.38,3.5,1.24.96.86,1.53,2.07,1.6,3.35,0,.02,0,.04,0,.05l5.83,54.54c.21.21.41.44.58.68.47.65.8,1.38.99,2.15.18.78.21,1.58.09,2.37-.13.79-.41,1.54-.82,2.22-.42.68-.97,1.27-1.61,1.73-.07.05-.14.1-.2.14-.75.49-1.6.82-2.48.95-.89.13-1.79.06-2.65-.2-1.07-.32-2.03-.94-2.77-1.78Z"/>
      <path class="cls-7" d="M290.85,176.67l10.44-1.16s-.77-13.9-.77-17.38-4.64-5.41-4.64-5.41l-2.32.77-2.71,23.17Z"/>
      <path class="cls-2" d="M256.84,195.96s-8.89,16.24-8.89,35.94-.77,110.07-.77,110.07c0,0,11.6,5.41,18.56-1.16l6.19-100.03,24.36,98.1s11.6,2.32,17.01-1.54l-10.44-68.36s-4.25-64.11-15.85-68.74c-11.6-4.63-30.15-4.27-30.15-4.27Z"/>
      <path class="cls-2" d="M258.52,131.49c4.52-3.26,8.17-7.03,10.59-11.5,0,0,8.29,9.2,13.35,9.66s.46-11.04.46-11.04l-9.21-2.3-8.75.92-6.91,4.6.46,9.66Z"/>
      <path class="cls-7" d="M285.06,150.4s.37-.2-21.65.6l-9.21,2.54-1.22.34s1.16,23.17,4.25,27.42c3.09,4.25,2.32,6.57,1.55,6.95-.77.39-2.71-.39-1.55,1.54,1.16,1.93,2.71.77,1.16,1.93-1.55,1.16-2.32,5.41-2.32,5.41l34.02,4.63s1.16-15.06,4.25-22.79c3.09-7.72,3.87-10.81,3.87-10.81l-2.32-15.45-10.82-2.32Z"/>
      <path class="cls-6" d="M220.38,84.53h-1.96V30.99c0-8.22-3.27-16.1-9.09-21.91C203.52,3.26,195.64,0,187.41,0h-113.54c-8.23,0-16.12,3.26-21.93,9.08-5.82,5.81-9.09,13.69-9.09,21.91v293.72c0,8.22,3.27,16.1,9.09,21.91,5.82,5.81,13.71,9.08,21.93,9.08h113.54c4.07,0,8.11-.8,11.87-2.36,3.76-1.56,7.18-3.84,10.06-6.72,2.88-2.88,5.17-6.29,6.72-10.05,1.56-3.76,2.36-7.79,2.36-11.86V122.64h1.96v-38.11Z"/>
      <path class="cls-3" d="M211.83,31.21v293.29c0,3.04-.59,6.04-1.75,8.85-1.16,2.81-2.86,5.36-5.01,7.51-2.15,2.15-4.7,3.85-7.5,5.02-2.81,1.16-5.82,1.76-8.85,1.77h-114.13c-6.14,0-12.03-2.43-16.37-6.76-4.34-4.33-6.79-10.21-6.79-16.35V31.21c0-3.04.59-6.04,1.76-8.85,1.16-2.81,2.86-5.36,5.01-7.51,2.15-2.15,4.7-3.85,7.51-5.02,2.81-1.16,5.82-1.76,8.86-1.77h13.87c-.68,1.67-.94,3.48-.76,5.27.18,1.79.81,3.51,1.81,5.01,1.01,1.5,2.37,2.72,3.96,3.57,1.59.85,3.37,1.29,5.17,1.29h65.05c1.8,0,3.58-.44,5.18-1.29,1.59-.85,2.95-2.07,3.96-3.57,1.01-1.5,1.63-3.22,1.81-5.01.18-1.79-.08-3.6-.76-5.27h14.82c6.14,0,12.03,2.43,16.37,6.76,4.34,4.33,6.79,10.21,6.79,16.34v.04Z"/>
      <path class="cls-5" d="M211.83,74.6v-9.99h-15.14V9.49c-2.57-.95-5.29-1.43-8.03-1.43h-1.97v56.54h-52.5V23.21h-10v41.4h-44V8.06h-5.62c-1.47,0-2.94.14-4.38.41v56.13h-18.78v9.99h18.78v23.11l-18.78,10.83v11.54l18.78-10.83v68.75h-18.78v9.99h18.78v99.4h-18.78v9.99h18.78v49.85c1.44.28,2.91.42,4.38.42h5.62v-50.27h44v50.27h10v-50.27h52.5v50.27h1.97c2.74,0,5.46-.48,8.03-1.43v-48.84h15.14v-9.99h-15.14v-43.46h15v-9.99h-15v-45.95h15.14v-9.99h-15.14v-60.94h15.14v-9.99h-15.14v-32.47h15.14ZM110.26,74.6l-30.07,17.34v-17.34s30.07,0,30.07,0ZM80.19,103.47l44-25.38v99.9h-44v-74.52ZM80.19,287.38v-99.4h44v99.4h-44ZM186.69,287.38h-52.5v-43.46h52.5v43.46ZM186.69,233.94h-52.5v-45.95h52.5v45.95ZM186.69,177.99h-52.5v-60.94h52.5v60.94ZM186.69,107.06h-52.5v-32.47h52.5v32.47Z"/>
      <path class="cls-1" d="M220.19,107.25c0,31.72-57.5,102.4-57.5,102.4,0,0-57.5-70.67-57.5-102.4,0-15.23,6.06-29.85,16.84-40.62,10.78-10.77,25.41-16.82,40.66-16.82s29.88,6.05,40.66,16.82c10.78,10.77,16.84,25.38,16.84,40.62Z"/>
      <path class="cls-3" d="M196.69,104.75c0,6.72-1.99,13.29-5.73,18.87-3.74,5.58-9.05,9.94-15.26,12.51-6.21,2.57-13.05,3.24-19.65,1.93-6.6-1.31-12.65-4.55-17.41-9.3-4.75-4.75-7.99-10.8-9.3-17.39-1.31-6.59-.64-13.42,1.93-19.63,2.57-6.21,6.93-11.51,12.52-15.24,5.59-3.73,12.16-5.72,18.89-5.72,4.46,0,8.88.87,13.01,2.58,4.12,1.7,7.87,4.2,11.03,7.35,3.16,3.15,5.66,6.89,7.37,11.01,1.71,4.12,2.59,8.53,2.59,12.99v.03Z"/>
      <path class="cls-1" d="M162.57,118.16c7,0,12.67-5.67,12.67-12.65s-5.67-12.65-12.67-12.65-12.67,5.67-12.67,12.65,5.67,12.65,12.67,12.65Z"/>
      <path class="cls-1" d="M180.96,134.41c-5.46,3.47-11.8,5.31-18.27,5.31-6.47,0-12.81-1.84-18.27-5.31,1.14-3.96,3.53-7.45,6.83-9.94,3.3-2.48,7.31-3.83,11.44-3.82,4.13,0,8.14,1.34,11.44,3.83,3.29,2.48,5.69,5.97,6.83,9.94Z"/>
      <path class="cls-1" d="M162.69,251.1c8.56,0,15.5-6.93,15.5-15.49s-6.94-15.48-15.5-15.48-15.5,6.93-15.5,15.48,6.94,15.49,15.5,15.49Z"/>
      <path class="cls-7" d="M402.5,356H.5c-.13,0-.26-.05-.35-.15-.09-.09-.15-.22-.15-.35s.05-.26.15-.35c.09-.09.22-.15.35-.15h402c.13,0,.26.05.35.15.09.09.15.22.15.35s-.05.26-.15.35c-.09.09-.22.15-.35.15Z"/>
    </g>
  </g>
</svg>